#!OML:ASF G:\ViconDB\ViconDB\414\test\team2\shane.ASF
:FULLY-SPECIFIED
:DEGREES
196
root 0.910185 16.4664 11.8739 -10.4999 7.75114 -8.00754
lowerback 9.4652 -4.47172 0.982006
upperback 2.52528 -5.70406 4.88141
thorax -2.24884 -2.85963 5.15856
lowerneck -18.0616 -3.45648 -11.1473
upperneck 22.4237 -3.48605 7.43517
head 10.5112 -1.68272 4.03795
rclavicle 2.18151e-014 1.59028e-014
rhumerus -64.1243 -8.03886 -35.9147
rradius 22.8653
rwrist 58.1649
rhand -35.0876 -11.1891
rfingers 7.12502
rthumb -8.2293 -41.0089
lclavicle 2.18151e-014 1.59028e-014
lhumerus -14.6679 -26.5156 98.5761
lradius 66.3823
lwrist -16.6667
lhand -46.1139 4.7546
lfingers 7.12502
lthumb -18.8553 33.8607
rfemur -14.857 -22.5432 23.765
rtibia 37.0873
rfoot -18.2679 5.04684
rtoes -9.24575
lfemur 27.8145 -3.28881 -2.01983
ltibia 26.2923
lfoot -8.03968 -27.1912
ltoes -28.4893
197
root 0.868355 16.4862 12.0939 -10.5872 7.51453 -8.22577
lowerback 9.41014 -4.36819 1.18397
upperback 2.59789 -5.55156 4.90207
thorax -2.1723 -2.78493 5.04257
lowerneck -18.0484 -3.45271 -10.9621
upperneck 22.3798 -3.53245 7.42236
head 10.4931 -1.68901 3.99412
rclavicle -1.02621e-013 5.96354e-014
rhumerus -63.3506 -8.8538 -37.3566
rradius 23.3764
rwrist 58.3495
rhand -35.099 -10.7267
rfingers 7.12502
rthumb -8.2403 -40.546
lclavicle -1.02621e-013 5.96354e-014
lhumerus -15.9048 -26.1009 98.811
lradius 64.807
lwrist -16.3789
lhand -46.0086 4.30338
lfingers 7.12502
lthumb -18.7539 33.4193
rfemur -13.9014 -22.4662 24.0161
rtibia 37.2249
rfoot -18.7857 4.70541
rtoes -9.07562
lfemur 25.6671 -2.77405 -1.00518
ltibia 31.1748
lfoot -5.57681 -28.0162
ltoes -25.2239
198
root 0.82738 16.5054 12.3114 -10.7166 7.40869 -8.31539
lowerback 9.31208 -4.24099 1.33123
upperback 2.77261 -5.38116 4.86653
thorax -1.96678 -2.70294 4.88676
lowerneck -18.0581 -3.52653 -10.9427
upperneck 22.2867 -3.68215 7.59561
head 10.4795 -1.73398 4.03036
rclavicle 3.04777e-014 -3.26007e-014
rhumerus -62.2363 -9.0953 -39.7964
rradius 23.6658
rwrist 57.6517
rhand -35.6552 -11.1722
rfingers 7.12502
rthumb -8.77711 -40.9697
lclavicle 3.04777e-014 -3.26007e-014
lhumerus -16.8579 -25.939 98.9626
lradius 63.1393
lwrist -16.0834
lhand -45.7469 4.45701
lfingers 7.12502
lthumb -18.5023 33.5971
rfemur -12.8708 -22.8041 24.0754
rtibia 37.2504
rfoot -19.409 5.03971
rtoes -8.95017
lfemur 23.5886 -2.40004 -0.259878
ltibia 35.7613
lfoot -3.32539 -28.4952
ltoes -21.359
199
root 0.793097 16.5241 12.5219 -10.7414 7.41373 -8.65583
lowerback 10.4792 -5.46218 -2.89448
upperback 2.51371 -7.37346 7.0399
thorax -1.87904 -3.74729 9.92985
lowerneck -18.5471 -1.59444 -10.1543
upperneck 22.4153 -0.551567 5.2947
head 10.2817 -0.497111 3.50844
rclavicle -3.2433e-014 -1.19271e-014
rhumerus -55.9999 -3.41669 -44.0995
rradius 23.751
rwrist 55.1974
rhand -34.6398 -11.119
rfingers 7.12502
rthumb -7.79711 -40.9553
lclavicle -3.2433e-014 -1.19271e-014
lhumerus -17.5241 -18.8112 99.3054
lradius 61.0651
lwrist -17.1403
lhand -45.7227 4.3161
lfingers 7.12502
lthumb -18.4789 33.4584
rfemur -12.0038 -23.6088 24.3771
rtibia 37.199
rfoot -20.0761 5.5882
rtoes -8.951
lfemur 21.3863 -2.16365 0.674209
ltibia 40.1113
lfoot -1.47542 -28.92
ltoes -16.1531
200
root 0.760477 16.5337 12.7252 -10.9439 7.2306 -9.00295
lowerback 10.5361 -5.2781 -2.20287
upperback 2.6475 -7.05196 7.01732
thorax -1.92016 -3.58253 9.4792
lowerneck -18.4922 -1.81259 -10.276
upperneck 22.373 -0.852933 5.39819
head 10.2843 -0.633237 3.5229
rclavicle 8.50798e-014 -7.95139e-014
rhumerus -55.2961 -3.73297 -46.2335
rradius 24.4695
rwrist 55.3408
rhand -34.3975 -11.3464
rfingers 7.12502
rthumb -7.56329 -41.1912
lclavicle 8.50798e-014 -7.95139e-014
lhumerus -18.1768 -18.8942 99.3278
lradius 58.8103
lwrist -17.0432
lhand -45.2213 4.80689
lfingers 7.12502
lthumb -17.9966 33.9943
rfemur -10.9081 -23.9013 24.6599
rtibia 37.0988
rfoot -20.6598 5.58714
rtoes -8.73824
lfemur 19.4811 -1.89125 1.57569
ltibia 44.2082
lfoot -0.676957 -28.703
ltoes -12.3236
201
root 0.718274 16.547 12.932 -11.1059 7.18987 -9.27571
lowerback 10.4631 -5.08355 -1.82206
upperback 2.81899 -6.75662 7.02105
thorax -1.79722 -3.43977 9.21774
lowerneck -18.4368 -1.93239 -10.325
upperneck 22.2381 -1.08209 5.68042
head 10.2459 -0.706261 3.598
rclavicle 5.56224e-014 -5.24792e-014
rhumerus -54.4629 -3.13443 -49.4575
rradius 25.0488
rwrist 52.4476
rhand -35.8703 -11.6605
rfingers 7.12502
rthumb -8.98466 -41.4492
lclavicle 5.56224e-014 -5.24792e-014
lhumerus -18.7949 -19.1248 99.4123
lradius 56.2442
lwrist -16.4966
lhand -45.158 3.96013
lfingers 7.12502
lthumb -17.9356 33.1531
rfemur -9.83574 -23.7271 24.8868
rtibia 36.9645
rfoot -21.1 5.26802
rtoes -7.99201
lfemur 17.5276 -1.75613 2.35572
ltibia 48.0636
lfoot -1.67502 -27.4327
ltoes -10.6087
